<mxfile host="app.diagrams.net" modified="2021-05-06T07:25:26.390Z" agent="5.0 (Macintosh; Intel Mac OS X 10_15_7) AppleWebKit/537.36 (KHTML, like Gecko) Chrome/90.0.4430.93 Safari/537.36" etag="WqAAQ6zKiuqltRmHR7mp" version="14.6.10" type="github">
  <diagram id="a_ZUav5BoNBRoOVnnXO1" name="Page-1">
    <mxGraphModel dx="1426" dy="723" grid="1" gridSize="10" guides="1" tooltips="1" connect="1" arrows="1" fold="1" page="1" pageScale="1" pageWidth="850" pageHeight="1100" math="0" shadow="0">
      <root>
        <mxCell id="0" />
        <mxCell id="1" parent="0" />
        <mxCell id="4YGkrnavLCWl67Veb2qj-1" value="" style="shape=image;verticalLabelPosition=bottom;labelBackgroundColor=#ffffff;verticalAlign=top;aspect=fixed;imageAspect=0;image=https://uploads-ssl.webflow.com/5d1126db676120bb4fe43762/5fa0775c8dc32dc5cce9150b_snowflake-icon.png;" vertex="1" parent="1">
          <mxGeometry x="120" y="220" width="160.23" height="154.26" as="geometry" />
        </mxCell>
        <mxCell id="4YGkrnavLCWl67Veb2qj-3" value="" style="shape=image;html=1;verticalAlign=top;verticalLabelPosition=bottom;labelBackgroundColor=#707070;imageAspect=0;aspect=fixed;image=https://cdn3.iconfinder.com/data/icons/user-interface-169/32/plus-128.png;fontColor=#808080;" vertex="1" parent="1">
          <mxGeometry x="360" y="240" width="120" height="120" as="geometry" />
        </mxCell>
        <mxCell id="4YGkrnavLCWl67Veb2qj-5" value="" style="shape=image;verticalLabelPosition=bottom;labelBackgroundColor=#ffffff;verticalAlign=top;aspect=fixed;imageAspect=0;image=https://miro.medium.com/max/256/1*CHzvR53_W9FR2s1BQW9Bqg.png;" vertex="1" parent="1">
          <mxGeometry x="550" y="214.26" width="160" height="160" as="geometry" />
        </mxCell>
      </root>
    </mxGraphModel>
  </diagram>
</mxfile>
